<svg width="296" height="36" viewBox="0 0 296 36" fill="none" xmlns="http://www.w3.org/2000/svg">
<rect width="36" height="36" fill="#009B79" fill-opacity="0.05"/>
<rect x="0.5" y="0.5" width="35" height="35" stroke="#009B79" stroke-opacity="0.05"/>
<path d="M22.5 10.5H20.25C19.2554 10.5 18.3016 10.8951 17.5983 11.5983C16.8951 12.3016 16.5 13.2554 16.5 14.25V16.5H14.25V19.5H16.5V25.5H19.5V19.5H21.75L22.5 16.5H19.5V14.25C19.5 14.0511 19.579 13.8603 19.7197 13.7197C19.8603 13.579 20.0511 13.5 20.25 13.5H22.5V10.5Z" stroke="#009B79" stroke-linecap="round" stroke-linejoin="round"/>
<rect x="52" width="36" height="36" fill="#009B79" fill-opacity="0.05"/>
<rect x="52.5" y="0.5" width="35" height="35" stroke="#009B79" stroke-opacity="0.05"/>
<g clip-path="url(#clip0_211_704)">
<path d="M71.3962 16.8515L76.8602 10.5H75.5654L70.821 16.0149L67.0317 10.5H62.6611L68.3914 18.8395L62.6611 25.5H63.956L68.9662 19.6761L72.968 25.5H77.3386L71.3959 16.8515H71.3962ZM69.6227 18.913L69.0421 18.0825L64.4226 11.4748H66.4114L70.1394 16.8075L70.72 17.6379L75.566 24.5696H73.5772L69.6227 18.9133V18.913Z" fill="#009B79"/>
</g>
<rect x="104" width="36" height="36" fill="#009B79" fill-opacity="0.05"/>
<rect x="104.5" y="0.5" width="35" height="35" stroke="#009B79" stroke-opacity="0.05"/>
<path d="M126.125 13.875H126.133M118.25 10.5H125.75C127.821 10.5 129.5 12.1789 129.5 14.25V21.75C129.5 23.8211 127.821 25.5 125.75 25.5H118.25C116.179 25.5 114.5 23.8211 114.5 21.75V14.25C114.5 12.1789 116.179 10.5 118.25 10.5ZM125 17.5275C125.093 18.1517 124.986 18.7892 124.695 19.3493C124.405 19.9094 123.945 20.3636 123.381 20.6473C122.818 20.931 122.179 21.0297 121.556 20.9294C120.933 20.8292 120.357 20.5351 119.911 20.0889C119.465 19.6427 119.171 19.0672 119.071 18.4442C118.97 17.8212 119.069 17.1824 119.353 16.6188C119.636 16.0551 120.091 15.5953 120.651 15.3047C121.211 15.0141 121.848 14.9074 122.473 15C123.109 15.0944 123.699 15.3911 124.154 15.8462C124.609 16.3014 124.906 16.8908 125 17.5275Z" stroke="#009B79" stroke-linecap="round" stroke-linejoin="round"/>
<rect x="156" width="36" height="36" fill="#009B79" fill-opacity="0.05"/>
<rect x="156.5" y="0.5" width="35" height="35" stroke="#009B79" stroke-opacity="0.05"/>
<path d="M181.5 14.25L174.757 18.5453C174.528 18.6782 174.268 18.7482 174.003 18.7482C173.739 18.7482 173.479 18.6782 173.25 18.5453L166.5 14.25M168 12H180C180.828 12 181.5 12.6716 181.5 13.5V22.5C181.5 23.3284 180.828 24 180 24H168C167.172 24 166.5 23.3284 166.5 22.5V13.5C166.5 12.6716 167.172 12 168 12Z" stroke="#009B79" stroke-linecap="round" stroke-linejoin="round"/>
<rect x="208" width="36" height="36" fill="#009B79" fill-opacity="0.05"/>
<rect x="208.5" y="0.5" width="35" height="35" stroke="#009B79" stroke-opacity="0.05"/>
<path d="M227.5 10.5H221.5C221.102 10.5 220.721 10.658 220.439 10.9393C220.158 11.2206 220 11.6022 220 12V24C220 24.3978 220.158 24.7794 220.439 25.0607C220.721 25.342 221.102 25.5 221.5 25.5H230.5C230.898 25.5 231.279 25.342 231.561 25.0607C231.842 24.7794 232 24.3978 232 24V15M227.5 10.5C227.737 10.4996 227.973 10.5462 228.192 10.6371C228.411 10.728 228.61 10.8613 228.778 11.0295L231.469 13.7205C231.638 13.8881 231.771 14.0875 231.863 14.3071C231.954 14.5267 232 14.7622 232 15M227.5 10.5L227.5 14.25C227.5 14.4489 227.579 14.6397 227.72 14.7803C227.86 14.921 228.051 15 228.25 15L232 15M224.5 15.75H223M229 18.75H223M229 21.75H223" stroke="#009B79" stroke-linecap="round" stroke-linejoin="round"/>
<rect x="260" width="36" height="36" fill="#009B79" fill-opacity="0.05"/>
<rect x="260.5" y="0.5" width="35" height="35" stroke="#009B79" stroke-opacity="0.05"/>
<path d="M273.5 22.5H272C271.602 22.5 271.221 22.342 270.939 22.0607C270.658 21.7794 270.5 21.3978 270.5 21V17.25C270.5 16.8522 270.658 16.4706 270.939 16.1893C271.221 15.908 271.602 15.75 272 15.75H284C284.398 15.75 284.779 15.908 285.061 16.1893C285.342 16.4706 285.5 16.8522 285.5 17.25V21C285.5 21.3978 285.342 21.7794 285.061 22.0607C284.779 22.342 284.398 22.5 284 22.5H282.5M273.5 15.75V11.25C273.5 11.0511 273.579 10.8603 273.72 10.7197C273.86 10.579 274.051 10.5 274.25 10.5H281.75C281.949 10.5 282.14 10.579 282.28 10.7197C282.421 10.8603 282.5 11.0511 282.5 11.25V15.75M274.25 19.5H281.75C282.164 19.5 282.5 19.8358 282.5 20.25V24.75C282.5 25.1642 282.164 25.5 281.75 25.5H274.25C273.836 25.5 273.5 25.1642 273.5 24.75V20.25C273.5 19.8358 273.836 19.5 274.25 19.5Z" stroke="#009B79" stroke-linecap="round" stroke-linejoin="round"/>
<defs>
<clipPath id="clip0_211_704">
<rect width="15" height="15" fill="white" transform="translate(62.5 10.5)"/>
</clipPath>
</defs>
</svg>
